<svg width="29" height="28" viewBox="0 0 29 28" fill="none" xmlns="http://www.w3.org/2000/svg">
<path d="M25.2777 10.6784C25.2466 10.909 25.1535 11.1267 25.0082 11.3084L15.5116 23.5304C15.3354 23.7521 15.0916 23.9108 14.8162 23.9808C14.6349 24.0249 14.4457 24.0249 14.2644 23.9808C13.9552 23.9274 13.6763 23.7626 13.4804 23.5176L3.98372 11.3084C3.81964 11.1003 3.72404 10.8464 3.71004 10.5818C3.69605 10.3171 3.76434 10.0546 3.90555 9.83027L7.27255 4.58727L7.37522 4.45894C7.49463 4.31522 7.64399 4.19931 7.81286 4.1193C7.98173 4.0393 8.16603 3.99715 8.35288 3.99577H20.6379C20.7363 3.98318 20.8358 3.98318 20.9342 3.99577C21.2572 4.07182 21.5382 4.27001 21.7182 4.54877L25.0852 9.79177C25.2552 10.054 25.3237 10.3693 25.2777 10.6784Z" stroke="#584BA5" stroke-width="1.3" stroke-linecap="round" stroke-linejoin="round"/>
<path d="M17.0668 4.03418L18.9031 10.6783L14.8163 23.9667M14.2645 23.9807L9.5733 10.6783L11.9253 4.03418M3.71313 10.6783H25.2778" stroke="#584BA5" stroke-width="1.3" stroke-linecap="round" stroke-linejoin="round"/>
</svg>
