<svg width="32" height="32" viewBox="0 0 32 32" fill="none" xmlns="http://www.w3.org/2000/svg">
<path d="M5.66675 23.7497C5.66675 22.3794 6.21109 21.0652 7.18003 20.0963C8.14897 19.1274 9.46313 18.583 10.8334 18.583H21.1667C22.537 18.583 23.8512 19.1274 24.8201 20.0963C25.7891 21.0652 26.3334 22.3794 26.3334 23.7497C26.3334 24.4348 26.0612 25.0919 25.5768 25.5764C25.0923 26.0608 24.4352 26.333 23.7501 26.333H8.25008C7.56494 26.333 6.90786 26.0608 6.42339 25.5764C5.93892 25.0919 5.66675 24.4348 5.66675 23.7497Z" stroke="black" stroke-width="1.5" stroke-linejoin="round"/>
<path d="M16 13.4165C18.1401 13.4165 19.875 11.6816 19.875 9.5415C19.875 7.4014 18.1401 5.6665 16 5.6665C13.8599 5.6665 12.125 7.4014 12.125 9.5415C12.125 11.6816 13.8599 13.4165 16 13.4165Z" stroke="black" stroke-width="1.5"/>
</svg>
