<svg width="98" height="102" viewBox="0 0 98 102" fill="none" xmlns="http://www.w3.org/2000/svg">
<path fill-rule="evenodd" clip-rule="evenodd" d="M83.9624 28.5182C83.9624 25.9938 82.9438 23.5728 81.1308 21.7878C79.3178 20.0028 76.8588 19 74.2948 19H54.4052C51.8425 19.0014 49.3852 20.0045 47.5734 21.7888L21.793 47.1707C19.9806 48.9557 18.9624 51.3762 18.9624 53.9001C18.9624 56.424 19.9806 58.8446 21.793 60.6295L41.6761 80.2116C42.5738 81.0956 43.6397 81.7969 44.8127 82.2753C45.9857 82.7537 47.243 83 48.5127 83C49.7824 83 51.0397 82.7537 52.2128 82.2753C53.3858 81.7969 54.4516 81.0956 55.3494 80.2116L81.1298 54.8297C82.9429 53.0451 83.9619 50.6245 83.9624 48.1003V28.5182ZM67.8497 31.6909C68.7043 31.6909 69.524 32.0252 70.1283 32.6202C70.7327 33.2152 71.0722 34.0222 71.0722 34.8637C71.0722 35.7051 70.7327 36.5121 70.1283 37.1071C69.524 37.7022 68.7043 38.0364 67.8497 38.0364C66.995 38.0364 66.1721 37.7022 65.5677 37.1071C64.9634 36.5121 64.6239 35.7051 64.6239 34.8637C64.6239 34.0222 64.9634 33.2152 65.5677 32.6202C66.1721 32.0252 66.995 31.6909 67.8497 31.6909Z" fill="#6F64B1"/>
<path fill-rule="evenodd" clip-rule="evenodd" d="M70.8065 36.1338C70.9842 35.7459 71.0828 35.3178 71.0828 34.8677C71.0828 34.7526 71.0764 34.6388 71.0638 34.5269C70.9702 34.4784 70.8923 34.4463 70.8522 34.4336C70.3608 34.4336 69.9624 34.8285 69.9624 35.2955C70.2489 35.4045 70.3786 35.607 70.4973 35.7924C70.5862 35.9312 70.6689 36.0603 70.8065 36.1338Z" fill="#616161"/>
<mask id="path-3-inside-1_384_270" fill="white">
<path d="M97.9624 19C97.9624 15.6011 97.0507 12.2645 95.3222 9.3379C93.5938 6.41133 91.112 4.00198 88.1354 2.36103C85.1589 0.720084 81.7967 -0.0923772 78.3994 0.0083466C75.002 0.10907 71.6938 1.11929 68.8197 2.93369C65.9457 4.7481 63.6109 7.30024 62.0589 10.3241C60.5069 13.3479 59.7944 16.7327 59.9958 20.1256C60.1971 23.5185 61.305 26.7953 63.2037 29.6143C65.1025 32.4334 67.7227 34.6915 70.7912 36.1532L70.9624 34.5C68.1926 33.1806 66.4517 31.1257 64.7378 28.5811C63.0239 26.0364 62.0239 23.0787 61.8421 20.016C61.6604 16.9534 62.3035 13.8981 63.7044 11.1687C65.1054 8.43919 67.2128 6.13549 69.8071 4.49771C72.4014 2.85994 75.3875 1.94806 78.4542 1.85714C81.5208 1.76622 84.5557 2.49959 87.2425 3.9808C89.9292 5.462 92.1695 7.63681 93.7296 10.2785C95.2898 12.9202 96.1128 15.932 96.1128 19H97.9624Z"/>
</mask>
<path d="M97.9624 19V21H99.9624V19L97.9624 19ZM70.7912 36.1532L69.9311 37.9588L72.4888 39.1772L72.7806 36.3592L70.7912 36.1532ZM70.9624 34.5L72.9518 34.706L73.0972 33.3016L71.8225 32.6944L70.9624 34.5ZM96.1128 19H94.1128V21H96.1128V19ZM99.9624 19C99.9624 15.2434 98.9547 11.5555 97.0443 8.32084L93.6001 10.355C95.1466 12.9735 95.9624 15.9589 95.9624 19L99.9624 19ZM97.0443 8.32084C95.1339 5.0862 92.3909 2.42324 89.101 0.60956L87.1699 4.1125C89.8331 5.58072 92.0537 7.73645 93.6001 10.355L97.0443 8.32084ZM89.101 0.60956C85.8112 -1.20412 82.0951 -2.1021 78.3401 -1.99078L78.4586 2.00747C81.4984 1.91735 84.5067 2.64429 87.1699 4.1125L89.101 0.60956ZM78.3401 -1.99078C74.5851 -1.87945 70.9287 -0.762889 67.7521 1.2425L69.8874 4.62488C72.4589 3.00147 75.4189 2.09759 78.4586 2.00747L78.3401 -1.99078ZM67.7521 1.2425C64.5755 3.24789 61.995 6.06869 60.2796 9.41082L63.8382 11.2373C65.2269 8.5318 67.3159 6.2483 69.8874 4.62488L67.7521 1.2425ZM60.2796 9.41082C58.5642 12.753 57.7767 16.4941 57.9993 20.2441L61.9923 20.0071C61.8121 16.9714 62.4496 13.9429 63.8382 11.2373L60.2796 9.41082ZM57.9993 20.2441C58.2218 23.9942 59.4463 27.6158 61.5449 30.7316L64.8625 28.497C63.1636 25.9747 62.1724 23.0429 61.9923 20.0071L57.9993 20.2441ZM61.5449 30.7316C63.6436 33.8474 66.5396 36.3432 69.9311 37.9588L71.6513 34.3476C68.9058 33.0397 66.5614 31.0193 64.8625 28.497L61.5449 30.7316ZM72.7806 36.3592L72.9518 34.706L68.973 34.294L68.8019 35.9472L72.7806 36.3592ZM71.8225 32.6944C69.5364 31.6054 68.0415 29.9059 66.3966 27.4638L63.079 29.6983C64.8619 32.3454 66.8488 34.7558 70.1023 36.3056L71.8225 32.6944ZM66.3966 27.4638C64.8825 25.2159 63.9992 22.603 63.8386 19.8976L59.8457 20.1345C60.0486 23.5543 61.1652 26.857 63.079 29.6983L66.3966 27.4638ZM63.8386 19.8976C63.6781 17.1921 64.2462 14.4931 65.4837 12.0819L61.9251 10.2554C60.3608 13.3032 59.6427 16.7148 59.8457 20.1345L63.8386 19.8976ZM65.4837 12.0819C66.7213 9.67074 68.583 7.63569 70.8748 6.1889L68.7395 2.80652C65.8426 4.63529 63.4894 7.20764 61.9251 10.2554L65.4837 12.0819ZM70.8748 6.1889C73.1665 4.74212 75.8044 3.93658 78.5134 3.85627L78.3949 -0.141978C74.9706 -0.040457 71.6363 0.97776 68.7395 2.80652L70.8748 6.1889ZM78.5134 3.85627C81.2225 3.77595 83.9035 4.4238 86.2769 5.73227L88.2081 2.22933C85.208 0.575393 81.8192 -0.243499 78.3949 -0.141978L78.5134 3.85627ZM86.2769 5.73227C88.6503 7.04074 90.6293 8.96193 92.0076 11.2956L95.4517 9.26143C93.7096 6.31169 91.2081 3.88326 88.2081 2.22933L86.2769 5.73227ZM92.0076 11.2956C93.3858 13.6292 94.1128 16.2898 94.1128 19H98.1128C98.1128 15.5742 97.1938 12.2112 95.4517 9.26143L92.0076 11.2956ZM96.1128 21H97.9624V17H96.1128V21Z" fill="#616161" mask="url(#path-3-inside-1_384_270)"/>
<path d="M8.39653 76.8861C3.75925 72.1513 3.83832 64.5537 8.57312 59.9165L43.2511 25.9528L76.2479 59.6436L41.5699 93.6073C36.8351 98.2445 29.2376 98.1655 24.6003 93.4307L8.39653 76.8861Z" fill="#6F64B1"/>
</svg>
